<svg width="218" height="65" viewBox="0 0 218 65" fill="none" xmlns="http://www.w3.org/2000/svg">
<path d="M39.325 14.535L47.74 49.79C47.905 50.505 47.52 51 46.75 51H40.48C39.82 51 39.38 50.67 39.27 50.01L34.595 27.5425L30.47 40.77C27.995 48.745 25.465 51.11 21.725 52.1L13.97 27.515L11.33 40.165C9.68 48.25 5.445 52.1 0.275 52.1L9.24 14.535C9.405 13.93 9.79 13.6 10.45 13.6H16.115C16.72 13.6 17.16 13.93 17.325 14.535L24.2275 36.975L31.24 14.535C31.405 13.93 31.845 13.6 32.45 13.6H38.115C38.775 13.6 39.16 13.93 39.325 14.535ZM64.0673 25.865C71.4373 25.865 77.4873 30.32 77.4873 38.35V39.34C77.4873 40.055 77.1023 40.44 76.3873 40.44H58.6773C58.8973 43.795 60.8223 45.995 63.9023 45.995C66.3223 45.995 67.9173 44.895 68.5773 43.41C68.8523 42.805 69.1823 42.475 69.7873 42.475H75.8923C76.6623 42.475 77.1023 42.97 76.8273 43.74C74.9023 49.24 70.1173 51.88 64.0673 51.88C55.7073 51.88 49.9323 46.93 49.9323 38.9C49.9323 30.98 55.9273 25.865 64.0673 25.865ZM58.7873 35.985H68.7423C68.5773 33.345 66.7073 31.475 63.7923 31.475C60.7398 31.475 59.2548 33.345 58.7873 35.985ZM92.5925 26.745H96.1675C96.8825 26.745 97.2675 27.13 97.2675 27.845V32.025C97.2675 32.74 96.8825 33.125 96.1675 33.125H92.5925V49.9C92.5925 50.615 92.2075 51 91.4925 51H85.4425C84.7275 51 84.3425 50.615 84.3425 49.9V33.125H80.8225C80.1075 33.125 79.7225 32.74 79.7225 32.025V27.845C79.7225 27.13 80.1075 26.745 80.8225 26.745H84.3425C84.3425 21.08 87.2575 17.395 92.5925 16.295V26.745ZM121.318 30.6775C122.665 28.01 124.975 26.525 128.165 26.195V51.55C124.975 51.22 122.665 49.735 121.318 47.04C119.173 50.065 115.763 51.88 111.61 51.88C104.46 51.88 99.51 46.545 99.51 38.845C99.51 31.2 104.46 25.865 111.61 25.865C115.763 25.865 119.173 27.68 121.318 30.6775ZM114.14 45.28C117.495 45.28 119.915 42.64 119.915 38.9C119.915 35.16 117.495 32.52 114.14 32.52C110.785 32.52 108.365 35.16 108.365 38.9C108.365 42.64 110.785 45.28 114.14 45.28Z" fill="url(#paint0_linear_152_4)"/>
<path d="M193.315 26.195C199.805 26.195 202.445 30.65 202.445 37.25V49.9C202.445 50.615 202.06 51 201.345 51H195.295C194.58 51 194.195 50.615 194.195 49.9V37.25C194.195 34.39 193.095 32.85 190.51 32.85C187.925 32.85 185.89 35.6 185.89 38.9V49.9C185.89 50.615 185.505 51 184.79 51H178.74C178.025 51 177.64 50.615 177.64 49.9V9.75C182.975 10.85 185.89 14.535 185.89 20.2V29.6875C187.54 27.625 190.125 26.195 193.315 26.195ZM211.082 21.96C208.057 21.96 205.032 20.475 205.032 17.505C205.032 14.59 208.057 13.05 211.082 13.05C214.052 13.05 217.132 14.59 217.132 17.505C217.132 20.475 214.052 21.96 211.082 21.96ZM214.492 51H208.442C207.727 51 207.342 50.615 207.342 49.9V26.195C212.677 27.295 215.592 30.98 215.592 36.645V49.9C215.592 50.615 215.207 51 214.492 51Z" fill="url(#paint1_linear_152_4)"/>
<g clip-path="url(#clip0_152_4)">
<mask id="mask0_152_4" style="mask-type:luminance" maskUnits="userSpaceOnUse" x="136" y="18" width="35" height="46">
<path d="M170.732 18H136V64H170.732V18Z" fill="white"/>
</mask>
<g mask="url(#mask0_152_4)">
<path d="M148.426 18.054C147.886 18.1081 146.751 18.3319 146.072 18.5171C144.004 19.096 142.151 20.1534 140.585 21.6507C139.288 22.8856 138.524 23.8735 137.783 25.2628C136.556 27.5782 136 30.0557 136 33.2433C136 36.0681 136.409 38.3372 137.32 40.6372C139.218 45.3993 143.448 48.8648 148.712 49.953C149.337 50.0842 150.989 50.3389 151.22 50.3389C151.251 50.3389 151.282 53.4107 151.282 57.1695V64H153.096H154.909V57.1695C154.909 53.2255 154.94 50.3389 154.979 50.3389C155.017 50.3389 155.542 50.2695 156.152 50.1923C162.242 49.3742 166.255 46.6111 168.833 41.4708C170.176 38.8003 170.732 36.3846 170.732 33.2433C170.732 27.6477 168.779 23.3487 164.835 20.2846C163.299 19.0883 161.717 18.3705 159.957 18.0695C159.216 17.946 157.271 18.0154 156.607 18.193C155.396 18.5171 154.4 19.1346 153.404 20.1688C152.47 21.1413 151.953 22.0752 151.699 23.2715C151.328 24.9695 151.336 24.7688 151.29 36.9248L151.243 48.4094L150.317 48.093C149.252 47.7302 148.395 47.3134 147.577 46.7654C146.767 46.2252 145.393 44.8205 144.799 43.9329C143.054 41.3242 142.174 37.6889 142.174 33.0966C142.174 26.2352 144.042 21.7973 147.701 19.9372C148.033 19.7675 148.573 19.5436 148.889 19.4356L149.468 19.2426L149.491 18.6252L149.514 18L149.105 18.0154C148.882 18.0154 148.573 18.0386 148.426 18.054ZM158.946 22.0597C160.065 22.3453 161.122 23.0631 161.995 24.1282C163.747 26.2584 164.75 28.8054 165.19 32.2013C165.321 33.2356 165.321 36.5389 165.19 37.5268C164.657 41.548 163.222 44.3111 160.721 46.148C159.394 47.1282 157.271 48.0003 155.488 48.2936C155.318 48.3168 155.118 48.3554 155.048 48.3785C154.917 48.4171 154.909 47.8923 154.909 38.0517C154.917 27.5396 154.963 25.1161 155.172 24.3057C155.442 23.2946 156.029 22.5228 156.8 22.1601C157.186 21.9748 157.364 21.9362 157.873 21.9362C158.205 21.9362 158.691 21.9903 158.946 22.0597Z" fill="url(#paint2_linear_152_4)"/>
</g>
</g>
<defs>
<linearGradient id="paint0_linear_152_4" x1="-9.13953" y1="13.5821" x2="232.009" y2="97.1329" gradientUnits="userSpaceOnUse">
<stop stop-color="#007BFF"/>
<stop offset="0.295" stop-color="#007BFF"/>
<stop offset="0.665" stop-color="#52DF52"/>
<stop offset="1" stop-color="#52DF52"/>
</linearGradient>
<linearGradient id="paint1_linear_152_4" x1="141" y1="1.12161e-06" x2="249.924" y2="-15.4947" gradientUnits="userSpaceOnUse">
<stop stop-color="#007BFF"/>
<stop offset="0.295" stop-color="#007BFF"/>
<stop offset="0.665" stop-color="#52DF52"/>
<stop offset="1" stop-color="#52DF52"/>
</linearGradient>
<linearGradient id="paint2_linear_152_4" x1="133.577" y1="27.6119" x2="185.344" y2="37.4165" gradientUnits="userSpaceOnUse">
<stop stop-color="#007BFF"/>
<stop offset="0.295" stop-color="#007BFF"/>
<stop offset="0.665" stop-color="#52DF52"/>
<stop offset="1" stop-color="#52DF52"/>
</linearGradient>
<clipPath id="clip0_152_4">
<rect width="34.7315" height="46" fill="white" transform="translate(136 18)"/>
</clipPath>
</defs>
</svg>
